@startuml
'https://plantuml.com/class-diagram

' Was ist ein Gerät?
' -> Controller (Raspi), nicht die Pflanze

hide empty members

entity Device {
    id
    --
    name
    owner: User
    location: string
    config: DeviceConfig(JSON)
}

entity Modell {
    id
    --
    name
}

entity ModellConfigField {
    name: string
    unit: string
    min: string
    max: string
    default: string
}

entity ModelSensor {
    sensorId
    name
    plant-slot
    field-name
}

entity Sensor {
    id
    --
    name
    type
    accuracy
    unit
    min-value
    max-value
}

' Plant an einem Gerät für einem Nutzer
entity Plant {
    id
    --
    name
    slot
    config: PlantConfig
}

entity PlantModell {
    lat-name
    --
    name
    default: PlantConfig
}

entity PlantConfig {
    min-humidity
    max-humidity
    min-soil-moisture
    max-soil-moisture
    min-temperature
    max-temperature
    min-light
    max-light
    min-light-time
    max-light-time
}

Plant }|--|| Device
Modell ||--|| Device
ModellConfigField ||--|| Modell
ModelSensor |o--|| Modell
ModelSensor ||--|| Sensor
Plant ||--|| PlantModell
Plant ||--|| PlantConfig
PlantModell ||--|| PlantConfig

@enduml
